<svg width="256" height="256" viewBox="0 0 256 256" xmlns="http://www.w3.org/2000/svg"><defs><linearGradient id="bgGrad" x1="0%" y1="0%" x2="100%" y2="100%"><stop offset="0%" stop-color="#3B82F6"></stop><stop offset="50%" stop-color="#2563EB"></stop><stop offset="100%" stop-color="#6366F1"></stop></linearGradient><radialGradient id="innerGlow" cx="35%" cy="35%" r="65%"><stop offset="0%" stop-color="rgba(255,255,255,0.15)"></stop><stop offset="100%" stop-color="rgba(255,255,255,0)"></stop></radialGradient><radialGradient id="lensGrad" cx="40%" cy="35%" r="60%"><stop offset="0%" stop-color="rgba(147,197,253,0.35)"></stop><stop offset="60%" stop-color="rgba(99,102,241,0.15)"></stop><stop offset="100%" stop-color="rgba(59,130,246,0.05)"></stop></radialGradient><radialGradient id="rippleGrad" cx="50%" cy="50%" r="50%"><stop offset="70%" stop-color="rgba(255,255,255,0.6)"></stop><stop offset="100%" stop-color="rgba(255,255,255,0)"></stop></radialGradient><clipPath id="iosClip"><rect x="0" y="0" width="256" height="256" rx="57.088" ry="57.088"></rect></clipPath><filter id="noise" x="0%" y="0%" width="100%" height="100%"><feTurbulence type="fractalNoise" baseFrequency="0.65" numOctaves="3" stitchTiles="stitch"></feTurbulence><feColorMatrix type="saturate" values="0"></feColorMatrix><feBlend in="SourceGraphic" mode="overlay"></feBlend></filter></defs><g clip-path="url(#iosClip)"><rect width="256" height="256" fill="url(#bgGrad)"></rect><rect width="256" height="256" fill="url(#innerGlow)"></rect><rect width="256" height="256" fill="url(#bgGrad)" filter="url(#noise)" opacity="0.06"></rect><g opacity="0.1" transform="translate(128, 128)"><line x1="0" y1="0" x2="200" y2="0" stroke="white" stroke-width="1.5"></line><line x1="0" y1="0" x2="173.20508075688775" y2="99.99999999999999" stroke="white" stroke-width="1.5"></line><line x1="0" y1="0" x2="100.00000000000003" y2="173.20508075688772" stroke="white" stroke-width="1.5"></line><line x1="0" y1="0" x2="1.2246467991473532e-14" y2="200" stroke="white" stroke-width="1.5"></line><line x1="0" y1="0" x2="-99.99999999999996" y2="173.20508075688775" stroke="white" stroke-width="1.5"></line><line x1="0" y1="0" x2="-173.20508075688775" y2="99.99999999999999" stroke="white" stroke-width="1.5"></line><line x1="0" y1="0" x2="-200" y2="2.4492935982947064e-14" stroke="white" stroke-width="1.5"></line><line x1="0" y1="0" x2="-173.20508075688772" y2="-100.00000000000003" stroke="white" stroke-width="1.5"></line><line x1="0" y1="0" x2="-100.00000000000009" y2="-173.20508075688767" stroke="white" stroke-width="1.5"></line><line x1="0" y1="0" x2="-3.6739403974420595e-14" y2="-200" stroke="white" stroke-width="1.5"></line><line x1="0" y1="0" x2="100.00000000000003" y2="-173.20508075688772" stroke="white" stroke-width="1.5"></line><line x1="0" y1="0" x2="173.20508075688767" y2="-100.00000000000009" stroke="white" stroke-width="1.5"></line></g><circle cx="128" cy="128" r="52" fill="none" stroke="rgba(255,255,255,0.12)" stroke-width="2"></circle><circle cx="128" cy="128" r="75" fill="none" stroke="rgba(255,255,255,0.07)" stroke-width="1.5"></circle><circle cx="128" cy="128" r="100" fill="none" stroke="rgba(255,255,255,0.04)" stroke-width="1"></circle><circle cx="128" cy="128" r="105" fill="url(#lensGrad)" stroke="white" stroke-width="12" stroke-linecap="round"></circle><path d="M 63 73 A 85 85 0 0 1 153 33" fill="none" stroke="rgba(255,255,255,0.35)" stroke-width="6" stroke-linecap="round"></path><line x1="206" y1="206" x2="263" y2="263" stroke="white" stroke-width="14" stroke-linecap="round"></line><line x1="216" y1="209" x2="260" y2="256" stroke="rgba(255,255,255,0.3)" stroke-width="4" stroke-linecap="round"></line><g transform="translate(128, 128)" fill="none" stroke="white" stroke-width="8" stroke-linecap="round" stroke-linejoin="round" opacity="0.9"><polyline points="-18,-30 -48,0 -18,30"></polyline><polyline points="18,-30 48,0 18,30"></polyline><line x1="10" y1="-25" x2="-10" y2="25" stroke-width="6" opacity="0.5"></line></g><circle cx="128" cy="128" r="5" fill="white" opacity="0.5"></circle></g></svg>